#!OML:ASF H:\Terrain\Patient Classification 1\Terrain2\Thursday\justin.ASF
:FULLY-SPECIFIED
:DEGREES
1904
root 5.94661 17.168 -21.5276 -9.59243 43.762 -0.398097
lowerback 8.85608 -2.44414 13.624
upperback 3.66378 -1.72089 7.5028
thorax -1.27028 -0.693136 0.465818
lowerneck -8.54172 0.647781 -7.85886
upperneck 42.4904 5.0904 -1.8049
head 16.817 1.11896 1.56147
rclavicle -2.50469e-014 -5.725e-014
rhumerus -30.33 -2.13944 -69.3928
rradius 35.9394
rwrist -12.2394
rhand -21.6533 10.1388
rfingers 7.12502
rthumb 4.74355 -19.7881
lclavicle -2.50469e-014 -5.725e-014
lhumerus -51.127 13.7446 76.0947
lradius 21.9596
lwrist -4.26462
lhand -14.6907 14.0757
lfingers 7.12502
lthumb 11.463 43.7423
rfemur 33.2844 24.7323 15.7908
rtibia -5.08889e-014
rfoot 3.62758 16.33
rtoes 7.34003
lfemur -40.1644 12.0412 7.07365
ltibia 36.4414
lfoot 38.0072 0.416049
ltoes 20.9774
1905
root 6.09928 17.1477 -21.5217 -9.84336 43.3451 -1.12141
lowerback 8.80262 -2.39017 13.888
upperback 3.62038 -1.6297 7.58074
thorax -1.28104 -0.64801 0.397121
lowerneck -8.44503 0.561542 -7.52855
upperneck 42.3698 4.90612 -1.98478
head 16.7435 1.07168 1.38861
rclavicle 3.91606e-014 3.18055e-015
rhumerus -30.62 -1.93649 -69.3734
rradius 36.1444
rwrist -12.4298
rhand -21.9556 9.69181
rfingers 7.12502
rthumb 4.4516 -20.2414
lclavicle 3.91606e-014 3.18055e-015
lhumerus -51.3355 13.5323 75.6673
lradius 22.0873
lwrist -3.91658
lhand -14.6967 13.9657
lfingers 7.12502
lthumb 11.4573 43.6327
rfemur 33.2804 25.0413 16.0664
rtibia -2.22639e-014
rfoot 4.35983 16.2154
rtoes 7.81332
lfemur -39.197 12.0295 7.41881
ltibia 35.5082
lfoot 38.4785 1.0395
ltoes 21.6017
1906
root 6.24641 17.1196 -21.5091 -10.3276 43.0379 -1.94882
lowerback 8.80329 -2.26182 14.1912
upperback 3.65526 -1.43864 7.60029
thorax -1.22958 -0.547377 0.235335
lowerneck -8.2633 0.416877 -6.92485
upperneck 42.1203 4.55997 -2.20675
head 16.5826 1.00075 1.1215
rclavicle -4.83047e-014 -1.90833e-014
rhumerus -31.1775 -2.56157 -69.2704
rradius 36.4125
rwrist -12.5271
rhand -21.4016 9.77828
rfingers 7.12502
rthumb 4.9866 -20.143
lclavicle -4.83047e-014 -1.90833e-014
lhumerus -51.3045 12.9945 75.2426
lradius 22.1371
lwrist -3.60411
lhand -14.9908 13.9715
lfingers 7.12502
lthumb 11.1736 43.654
rfemur 33.5388 25.2122 16.5558
rtibia 0
rfoot 5.03939 15.9129
rtoes 8.41637
lfemur -38.1594 11.9905 7.80916
ltibia 34.6733
lfoot 38.6738 1.24923
ltoes 20.3149
1907
root 6.40016 17.0874 -21.5035 -10.2852 42.9397 -2.0159
lowerback 8.73759 -2.27075 13.9193
upperback 3.73692 -1.50091 7.59229
thorax -1.10752 -0.572841 0.374633
lowerneck -8.36232 0.328628 -7.01801
upperneck 41.8985 4.40418 -2.17919
head 16.4847 0.921115 1.12329
rclavicle -7.93151e-014 2.22639e-014
rhumerus -31.3905 -2.48606 -69.1504
rradius 36.6256
rwrist -12.8102
rhand -20.9543 9.87674
rfingers 7.12502
rthumb 5.41848 -20.034
lclavicle -7.93151e-014 2.22639e-014
lhumerus -51.3873 12.9322 74.8704
lradius 22.3426
lwrist -3.19243
lhand -15.1574 14.1246
lfingers 7.12502
lthumb 11.0129 43.8157
rfemur 33.8165 25.3202 16.3631
rtibia -3.18055e-015
rfoot 5.3629 15.8405
rtoes 7.39142
lfemur -37.1809 11.4423 7.63401
ltibia 33.9623
lfoot 38.6203 1.84569
ltoes 18.7565
1908
root 6.5665 17.0492 -21.5003 -9.78035 43.0972 -1.61343
lowerback 8.42666 -2.32357 13.334
upperback 3.76074 -1.69771 7.42447
thorax -0.921791 -0.669669 0.518193
lowerneck -8.5199 0.325348 -6.92061
upperneck 41.8385 4.32659 -2.08339
head 16.4863 0.907109 1.13608
rclavicle -5.52621e-014 -4.13472e-014
rhumerus -31.5792 -2.33345 -69.1376
rradius 36.8434
rwrist -13.1227
rhand -20.5272 9.84016
rfingers 7.12502
rthumb 5.83079 -20.0596
lclavicle -5.52621e-014 -4.13472e-014
lhumerus -51.5171 12.8258 74.4039
lradius 22.5482
lwrist -2.88066
lhand -15.1494 14.4774
lfingers 7.12502
lthumb 11.0206 44.1681
rfemur 33.8969 25.3035 15.5399
rtibia -1.90833e-014
rfoot 6.23358 15.7463
rtoes 12.0051
lfemur -36.5078 10.6666 6.96638
ltibia 33.4108
lfoot 38.5622 2.64436
ltoes 18.7178
1909
root 6.73236 16.997 -21.5027 -9.60504 43.1128 -1.78067
lowerback 8.2831 -2.42271 13.0871
upperback 3.69177 -1.87677 7.28754
thorax -0.930473 -0.765646 0.519398
lowerneck -8.65685 0.331696 -6.56632
upperneck 41.8292 4.19959 -2.00139
head 16.5136 0.907816 1.08893
rclavicle 8.54774e-015 -1.90833e-014
rhumerus -31.9243 -2.33074 -69.2859
rradius 37.1545
rwrist -13.6562
rhand -20.3216 10.1898
rfingers 7.12502
rthumb 6.02938 -19.7044
lclavicle 8.54774e-015 -1.90833e-014
lhumerus -51.8117 12.7297 73.7132
lradius 22.7285
lwrist -2.66296
lhand -15.3451 15.1797
lfingers 7.12502
lthumb 10.8318 44.8804
rfemur 33.8513 25.3299 15.15
rtibia 9.54166e-015
rfoot 7.32031 15.3973
rtoes 17.1339
lfemur -36.0275 10.2596 6.7323
ltibia 33.0979
lfoot 38.6149 3.36681
ltoes 21.1405
1910
root 6.90374 16.9446 -21.5196 -9.0105 42.7319 -1.7038
lowerback 8.23938 -3.02257 12.1177
upperback 3.59899 -2.71994 7.88086
thorax -1.01246 -1.19898 1.75445
lowerneck -8.96028 0.987077 -8.02051
upperneck 41.6754 5.55705 -1.98043
head 16.4533 1.23641 1.56407
rclavicle -1.05356e-013 2.54444e-014
rhumerus -31.2053 0.414225 -69.0888
rradius 37.4194
rwrist -14.4595
rhand -20.8857 10.486
rfingers 7.12502
rthumb 5.48473 -19.423
lclavicle -1.05356e-013 2.54444e-014
lhumerus -53.1642 15.2425 73.1144
lradius 23.1707
lwrist -2.55708
lhand -15.6527 15.5154
lfingers 7.12502
lthumb 10.5351 45.2314
rfemur 33.378 25.769 14.4359
rtibia -6.36111e-014
rfoot 8.15698 15.1761
rtoes 18.663
lfemur -35.6553 10.0917 6.38471
ltibia 32.9338
lfoot 38.5909 3.91467
ltoes 22.95
